<svg xmlns="http://www.w3.org/2000/svg" enable-background="new 0 0 64 64" viewBox="0 0 64 64" id="no-signboard"><path fill="#fff" d="M51.5,5.5v26c0,0.55-0.45,1-1,1h-37c-0.55,0-1-0.45-1-1v-26c0-0.55,0.45-1,1-1h37
			C51.05,4.5,51.5,4.95,51.5,5.5z"></path><path fill="#06afff" d="M51.5,1.5h-39c-1.66,0-3,1.34-3,3v28c0,1.66,1.34,3,3,3h39c1.66,0,3-1.34,3-3v-28
			C54.5,2.84,53.16,1.5,51.5,1.5z M51.5,31.5c0,0.55-0.45,1-1,1h-37c-0.55,0-1-0.45-1-1v-26c0-0.55,0.45-1,1-1h37c0.55,0,1,0.45,1,1
			V31.5z"></path><path fill="#fcda35" d="M34.5,35.5V60c0,1.381-1.119,2.5-2.5,2.5h0c-1.381,0-2.5-1.119-2.5-2.5V35.5H34.5z"></path><path fill="#faca00" d="M32,35.5v27c-0.69,0-1.32-0.28-1.77-0.73c-0.45-0.45-0.73-1.08-0.73-1.77V35.5H32z"></path><path fill="#efefef" d="M51.5,29.82v1.68c0,0.55-0.45,1-1,1h-37c-0.55,0-1-0.45-1-1v-26c0-0.55,0.45-1,1-1h3.96
			c3,5.38,6.92,10.16,11.56,14.15c3.69,3.15,7.84,5.8,12.32,7.82C44.57,27.92,47.96,29.05,51.5,29.82z"></path><path fill="#0688ff" d="M51.5,29.82v1.68c0,0.55-0.45,1-1,1h-37c-0.55,0-1-0.45-1-1v-26c0-0.55,0.45-1,1-1h3.96
			c-0.55-0.98-1.06-1.98-1.53-3H12.5c-1.66,0-3,1.34-3,3v28c0,1.66,1.34,3,3,3h39c1.66,0,3-1.34,3-3v-2.12
			C53.49,30.22,52.49,30.04,51.5,29.82z"></path><path fill="#ff56cb" d="M34.828,18.5l6.01-6.01c0.781-0.781,0.781-2.047,0-2.828c-0.781-0.781-2.047-0.781-2.828,0L32,15.672
			l-6.01-6.01c-0.781-0.781-2.047-0.781-2.828,0c-0.781,0.781-0.781,2.047,0,2.828l6.01,6.01l-6.01,6.01
			c-0.781,0.781-0.781,2.047,0,2.828c0.781,0.781,2.047,0.781,2.828,0l6.01-6.01l6.01,6.01c0.781,0.781,2.047,0.781,2.828,0
			c0.781-0.781,0.781-2.047,0-2.828L34.828,18.5z"></path><path fill="#d949ac" d="M41.34,26.47c-0.08,0.32-0.25,0.62-0.5,0.87c-0.78,0.78-2.05,0.78-2.83,0L32,21.33l-6.01,6.01
			c-0.78,0.78-2.05,0.78-2.83,0c-0.78-0.78-0.78-2.05,0-2.83l5.86-5.86C32.71,21.8,36.86,24.45,41.34,26.47z"></path><path fill="#2828b8" d="M51.501,36H12.499C10.569,36,9,34.43,9,32.501V4.499C9,2.57,10.569,1,12.499,1h39.002
				C53.431,1,55,2.57,55,4.499v28.002C55,34.43,53.431,36,51.501,36z M12.499,2C11.121,2,10,3.121,10,4.499v28.002
				C10,33.879,11.121,35,12.499,35h39.002C52.879,35,54,33.879,54,32.501V4.499C54,3.121,52.879,2,51.501,2H12.499z"></path><path fill="#2828b8" d="M32 63c-1.654 0-3-1.346-3-3V35.5c0-.276.224-.5.5-.5s.5.224.5.5V60c0 1.103.897 2 2 2s2-.897 2-2V35.5c0-.276.224-.5.5-.5s.5.224.5.5V60C35 61.654 33.654 63 32 63zM39.425 28.425c-.668 0-1.296-.26-1.768-.732L32 22.035l-5.657 5.657c-.942.943-2.589.945-3.535 0-.975-.975-.975-2.561 0-3.536l5.657-5.657-5.657-5.657c-.975-.975-.975-2.561 0-3.536.946-.945 2.593-.943 3.535 0L32 14.964l5.657-5.657c.942-.943 2.589-.945 3.535 0 .975.975.975 2.561 0 3.536L35.535 18.5l5.657 5.657c.975.975.975 2.561 0 3.536C40.72 28.165 40.092 28.425 39.425 28.425zM32 20.828c.128 0 .256.049.354.146l6.011 6.011c.565.566 1.554.567 2.121 0 .585-.585.585-1.537 0-2.122l-6.011-6.01c-.094-.094-.146-.221-.146-.354s.053-.26.146-.354l6.011-6.01c.585-.585.585-1.537 0-2.122-.566-.567-1.555-.566-2.121 0l-6.011 6.01c-.195.195-.512.195-.707 0l-6.011-6.01c-.566-.566-1.555-.567-2.121 0-.585.585-.585 1.537 0 2.122l6.011 6.01c.094.094.146.221.146.354s-.053.26-.146.354l-6.011 6.01c-.585.585-.585 1.537 0 2.122.567.568 1.556.567 2.121 0l6.011-6.011C31.744 20.877 31.872 20.828 32 20.828zM28.5 33h-5c-.276 0-.5-.224-.5-.5s.224-.5.5-.5h5c.276 0 .5.224.5.5S28.776 33 28.5 33z"></path><path fill="#2828b8" d="M50.504,33H33.5c-0.276,0-0.5-0.224-0.5-0.5s0.224-0.5,0.5-0.5h17.004C50.777,32,51,31.777,51,31.504V5.496
				C51,5.223,50.777,5,50.504,5H13.496C13.223,5,13,5.223,13,5.496v26.008C13,31.777,13.223,32,13.496,32H20.5
				c0.276,0,0.5,0.224,0.5,0.5S20.776,33,20.5,33h-7.004C12.671,33,12,32.329,12,31.504V5.496C12,4.671,12.671,4,13.496,4h37.008
				C51.329,4,52,4.671,52,5.496v26.008C52,32.329,51.329,33,50.504,33z"></path></svg>